<svg xmlns="http://www.w3.org/2000/svg" width="233.42" height="61.404" viewBox="0 0 233.42 61.404"><g fill="#FFF"><path d="M11.482.252h2.664l11.483 25.377h-3.06l-2.952-6.659H5.903l-2.988 6.659H0L11.482.252zm7.019 16.162L12.778 3.563 7.019 16.414h11.482zM30.492 21.958l1.764-2.088c2.628 2.375 5.147 3.563 8.639 3.563 3.383 0 5.615-1.8 5.615-4.355 0-2.34-1.26-3.671-6.551-4.787-5.795-1.26-8.459-3.132-8.459-7.343 0-3.959 3.492-6.875 8.279-6.875 3.671 0 6.299 1.044 8.854 3.095l-1.656 2.196c-2.339-1.908-4.679-2.735-7.271-2.735-3.275 0-5.363 1.8-5.363 4.139 0 2.376 1.296 3.708 6.839 4.896 5.615 1.224 8.207 3.276 8.207 7.199 0 4.319-3.599 7.127-8.603 7.127-3.995-.001-7.271-1.333-10.294-4.032zM56.987.432h2.844v25.197h-2.844V.432zM77.722.252h2.664l11.483 25.377h-3.06l-2.952-6.659H72.143l-2.988 6.659h-2.916L77.722.252zm7.019 16.162L79.018 3.563l-5.759 12.851h11.482zM98.243.432h18.106V3.06h-15.262v8.999h13.642v2.592h-13.642V25.63h-2.844V.432zM121.57 13.03c0-6.947 5.22-13.03 12.887-13.03s12.814 6.011 12.814 13.03c0 6.947-5.219 13.031-12.887 13.031-7.665 0-12.814-6.011-12.814-13.031zm22.75 0c0-5.723-4.176-10.402-9.936-10.402-5.759 0-9.862 4.607-9.862 10.402 0 5.724 4.175 10.403 9.935 10.403s9.863-4.607 9.863-10.403zM153.61 13.03c0-6.947 5.22-13.03 12.886-13.03 7.668 0 12.814 6.011 12.814 13.03 0 6.947-5.219 13.031-12.886 13.031S153.61 20.05 153.61 13.03zm22.749 0c0-5.723-4.176-10.402-9.935-10.402s-9.862 4.607-9.862 10.402c0 5.724 4.175 10.403 9.934 10.403 5.76 0 9.863-4.607 9.863-10.403zM187.018.432h8.747c7.919 0 13.39 5.435 13.39 12.598 0 7.091-5.471 12.599-13.39 12.599h-8.747V.432zm8.747 22.569c6.371 0 10.438-4.32 10.438-9.971 0-5.579-4.067-9.971-10.438-9.971h-5.903v19.942h5.903zM214.521 21.958l1.764-2.088c2.629 2.375 5.148 3.563 8.639 3.563 3.385 0 5.615-1.8 5.615-4.355 0-2.34-1.26-3.671-6.551-4.787-5.795-1.26-8.459-3.132-8.459-7.343 0-3.959 3.492-6.875 8.279-6.875 3.672 0 6.299 1.044 8.855 3.095l-1.656 2.196c-2.34-1.908-4.68-2.735-7.271-2.735-3.275 0-5.363 1.8-5.363 4.139 0 2.376 1.297 3.708 6.84 4.896 5.615 1.224 8.207 3.276 8.207 7.199 0 4.319-3.6 7.127-8.604 7.127-3.996-.001-7.271-1.333-10.295-4.032zM28.639 50.461V35.812h2.844v14.47c0 5.436 2.879 8.495 7.702 8.495 4.644 0 7.596-2.808 7.596-8.315v-14.65h2.844v14.435c0 7.343-4.212 11.158-10.511 11.158-6.228-.001-10.475-3.816-10.475-10.944zm29.662-14.649h2.844v15.046l14.47-15.046h3.672l-10.8 11.014 11.267 14.182H76.19l-9.683-12.202-5.363 5.436v6.767H58.3V35.812zm27.576 0h10.835c3.096 0 5.579.936 7.163 2.52 1.224 1.224 1.943 2.988 1.943 5.04 0 4.175-2.88 6.624-6.839 7.342l7.739 10.295h-3.492l-7.307-9.79H88.72v9.79h-2.844V35.812zm10.583 12.85c3.779 0 6.479-1.943 6.479-5.255 0-3.096-2.375-4.968-6.442-4.968h-7.775v10.223h7.738zm27.18-13.031h2.663l11.482 25.376h-3.06l-2.951-6.658H118.06l-2.987 6.658h-2.915l11.482-25.376zm7.018 16.162l-5.723-12.85-5.76 12.85h11.483zm13.611-15.981h2.844v25.196h-2.844V35.812zm11.843 0h2.664l15.874 20.193V35.812h2.771v25.196h-2.268l-16.271-20.661v20.661h-2.771V35.812zm30.276 0h18.214v2.592h-15.37v8.603h13.75v2.592h-13.75v8.818h15.55v2.592h-18.394V35.812z"/></g></svg>