<?xml version="1.0" encoding="utf-8"?>
<!-- Generator: Adobe Illustrator 16.0.0, SVG Export Plug-In . SVG Version: 6.00 Build 0)  -->
<!DOCTYPE svg PUBLIC "-//W3C//DTD SVG 1.1//EN" "http://www.w3.org/Graphics/SVG/1.1/DTD/svg11.dtd">
<svg version="1.1" xmlns="http://www.w3.org/2000/svg" xmlns:xlink="http://www.w3.org/1999/xlink" x="0px" y="0px" width="480px"
	 height="320px" viewBox="0 0 480 320" enable-background="new 0 0 480 320" xml:space="preserve">
<g id="Layer_2">
</g>
<g id="XMLID_1_">
</g>
<g id="Layer_6" display="none">
</g>
<g id="Layer_7">
</g>
<g id="Layer_5" display="none">
</g>
<g id="prices">
</g>
<g id="Layer_3">
</g>
<g id="Dimension_Layer">
	<g>
		<path fill="#565655" d="M61.563,251.217H58.81c0.078-2.833,1.025-5.159,2.842-6.979s4.06-2.729,6.729-2.729
			c2.644,0,4.782,0.854,6.416,2.56c1.634,1.707,2.451,3.719,2.451,6.038c0,1.628-0.39,3.155-1.169,4.582
			c-0.779,1.426-2.292,3.357-4.538,5.793l-7.157,7.707h13.255v2.773H58.126L69.103,259.1c2.227-2.385,3.675-4.153,4.346-5.307
			s1.006-2.368,1.006-3.646c0-1.616-0.603-3.007-1.807-4.174c-1.204-1.166-2.679-1.749-4.424-1.749c-1.836,0-3.362,0.612-4.58,1.836
			S61.732,249.003,61.563,251.217z"/>
		<path fill="#565655" d="M96.138,241.51h0.582v20.039h3.477v2.734H96.72v6.68h-2.852v-6.68h-13.75L96.138,241.51z M93.868,261.549
			v-12.067l-8.512,12.067H93.868z"/>
		<path fill="#565655" d="M102.54,256.607c0-3.789,0.407-6.719,1.221-8.789s1.963-3.64,3.447-4.707s3.145-1.602,4.98-1.602
			c1.862,0,3.548,0.537,5.059,1.611s2.705,2.686,3.584,4.834s1.318,5.032,1.318,8.652c0,3.606-0.433,6.478-1.299,8.613
			s-2.061,3.747-3.584,4.834s-3.216,1.631-5.078,1.631c-1.836,0-3.489-0.527-4.961-1.582s-2.62-2.627-3.447-4.717
			S102.54,260.37,102.54,256.607z M105.255,256.656c0,3.245,0.29,5.697,0.869,7.359c0.579,1.661,1.436,2.922,2.568,3.782
			c1.133,0.859,2.331,1.29,3.594,1.29c1.276,0,2.468-0.421,3.574-1.261c1.106-0.841,1.946-2.102,2.52-3.782
			c0.716-2.046,1.074-4.509,1.074-7.389c0-2.893-0.319-5.262-0.957-7.105s-1.521-3.192-2.646-4.046s-2.314-1.28-3.564-1.28
			c-1.276,0-2.474,0.427-3.594,1.28s-1.973,2.111-2.559,3.772S105.255,253.398,105.255,256.656z"/>
		<path fill="#565655" d="M140.294,252.115v18.848h-2.734v-21.25h10.742v2.402H140.294z"/>
		<path fill="#565655" d="M326.795,248.893h-2.93c0.534-2.37,1.556-4.192,3.066-5.469s3.294-1.914,5.352-1.914
			c1.497,0,2.894,0.342,4.189,1.025s2.298,1.604,3.008,2.764s1.064,2.37,1.064,3.633c0,2.474-1.23,4.434-3.691,5.879
			c1.38,0.56,2.513,1.38,3.398,2.461c1.25,1.523,1.875,3.229,1.875,5.117c0,1.628-0.43,3.181-1.289,4.658s-2.031,2.62-3.516,3.428
			c-1.484,0.807-3.145,1.211-4.98,1.211c-2.474,0-4.538-0.713-6.191-2.139s-2.734-3.519-3.242-6.279h2.813
			c0.495,1.862,1.204,3.21,2.129,4.043c1.185,1.055,2.695,1.582,4.531,1.582c2.083,0,3.757-0.625,5.02-1.875
			s1.895-2.715,1.895-4.395c0-1.12-0.315-2.168-0.947-3.145s-1.478-1.712-2.539-2.207s-2.705-0.801-4.932-0.918v-2.637
			c1.315,0,2.513-0.231,3.594-0.693s1.865-1.052,2.354-1.768s0.732-1.497,0.732-2.344c0-1.25-0.498-2.331-1.494-3.242
			s-2.256-1.367-3.779-1.367c-1.237,0-2.305,0.349-3.203,1.045S327.42,247.226,326.795,248.893z"/>
		<path fill="#565655" d="M363.338,242.232v2.734h-10.209l-1.438,7.834c1.249-0.366,2.374-0.549,3.376-0.549
			c2.614,0,4.771,0.876,6.468,2.627s2.546,3.994,2.546,6.729c0,1.888-0.437,3.62-1.309,5.195s-2.054,2.783-3.545,3.623
			s-3.213,1.26-5.166,1.26c-2.331,0-4.297-0.713-5.898-2.139s-2.559-3.271-2.871-5.537h2.949c0.222,1.106,0.596,2.005,1.123,2.695
			s1.23,1.247,2.109,1.67s1.8,0.635,2.764,0.635c1.888,0,3.509-0.715,4.863-2.146c1.354-1.43,2.031-3.218,2.031-5.364
			c0-1.937-0.612-3.511-1.836-4.72s-2.858-1.813-4.902-1.813c-1.692,0-3.743,0.515-6.152,1.543l2.656-14.277H363.338z"/>
		<path fill="#565655" d="M367.107,256.607c0-3.789,0.407-6.719,1.221-8.789s1.963-3.64,3.447-4.707s3.145-1.602,4.98-1.602
			c1.862,0,3.548,0.537,5.059,1.611s2.705,2.686,3.584,4.834s1.318,5.032,1.318,8.652c0,3.606-0.433,6.478-1.299,8.613
			s-2.061,3.747-3.584,4.834s-3.216,1.631-5.078,1.631c-1.836,0-3.489-0.527-4.961-1.582s-2.62-2.627-3.447-4.717
			S367.107,260.37,367.107,256.607z M369.822,256.656c0,3.245,0.29,5.697,0.869,7.359c0.579,1.661,1.436,2.922,2.568,3.782
			c1.133,0.859,2.331,1.29,3.594,1.29c1.276,0,2.468-0.421,3.574-1.261c1.106-0.841,1.946-2.102,2.52-3.782
			c0.716-2.046,1.074-4.509,1.074-7.389c0-2.893-0.319-5.262-0.957-7.105s-1.521-3.192-2.646-4.046s-2.314-1.28-3.564-1.28
			c-1.276,0-2.474,0.427-3.594,1.28s-1.973,2.111-2.559,3.772S369.822,253.398,369.822,256.656z"/>
		<path fill="#565655" d="M404.861,252.115v18.848h-2.734v-21.25h10.742v2.402H404.861z"/>
		<ellipse fill="#CFD0D0" cx="234.33" cy="159.323" rx="4.252" ry="127.56"/>
		<polygon fill="#FFFFFF" points="108.189,94.123 85.512,94.123 54.331,125.303 54.331,139.477 139.37,139.477 139.37,125.303 		"/>
		<path fill="#FFFFFF" d="M62.835,218.848h68.029l8.506-76.535H54.331L62.835,218.848z M96.851,159.32
			c10.958,0,19.841,8.883,19.841,19.842c0,10.958-8.883,19.842-19.841,19.842s-19.843-8.884-19.843-19.842
			C77.008,168.203,85.893,159.32,96.851,159.32z"/>
		<polygon fill="#FFFFFF" points="159.212,99.792 139.37,139.477 142.204,139.477 162.047,99.792 		"/>
		<polygon fill="#FFFFFF" points="31.654,99.792 51.496,139.477 54.331,139.477 34.488,99.792 		"/>
		<polygon fill="#FFFFFF" points="381.024,62.942 352.677,62.942 313.701,101.918 313.701,119.635 420,119.635 420,101.918 		"/>
		<path fill="#FFFFFF" d="M324.331,218.848h85.036L420,123.178H313.701L324.331,218.848z M366.851,144.439
			c13.697,0,24.801,11.104,24.801,24.802c0,13.697-11.104,24.803-24.801,24.803s-24.804-11.105-24.804-24.803
			C342.047,155.543,353.153,144.439,366.851,144.439z"/>
		<polygon fill="#FFFFFF" points="444.803,70.028 420,119.635 423.543,119.635 448.346,70.028 		"/>
		<polygon fill="#FFFFFF" points="285.355,70.028 310.157,119.635 313.701,119.635 288.898,70.028 		"/>
	</g>
</g>
</svg>
