<svg xmlns="http://www.w3.org/2000/svg" width="480" height="320" viewBox="0 0 480 320"><path fill="#565655" d="M61.563 251.217H58.81c.078-2.833 1.025-5.159 2.842-6.979s4.06-2.729 6.729-2.729c2.644 0 4.782.854 6.416 2.56 1.634 1.707 2.451 3.719 2.451 6.038 0 1.628-.39 3.155-1.169 4.582-.779 1.426-2.292 3.357-4.538 5.793l-7.157 7.707h13.255v2.773H58.126L69.103 259.1c2.227-2.385 3.675-4.153 4.346-5.307s1.006-2.368 1.006-3.646c0-1.616-.603-3.007-1.807-4.174-1.204-1.166-2.679-1.749-4.424-1.749-1.836 0-3.362.612-4.58 1.836s-1.912 2.943-2.081 5.157zM96.138 241.51h.582v20.039h3.477v2.734H96.72v6.68h-2.852v-6.68h-13.75l16.02-22.773zm-2.27 20.039v-12.067l-8.512 12.067h8.512zM102.54 256.607c0-3.789.407-6.719 1.221-8.789s1.963-3.64 3.447-4.707 3.145-1.602 4.98-1.602c1.862 0 3.548.537 5.059 1.611s2.705 2.686 3.584 4.834 1.318 5.032 1.318 8.652c0 3.606-.433 6.478-1.299 8.613s-2.061 3.747-3.584 4.834-3.216 1.631-5.078 1.631c-1.836 0-3.489-.527-4.961-1.582s-2.62-2.627-3.447-4.717-1.24-5.015-1.24-8.778zm2.715.049c0 3.245.29 5.697.869 7.359.579 1.661 1.436 2.922 2.568 3.782 1.133.859 2.331 1.29 3.594 1.29 1.276 0 2.468-.421 3.574-1.261 1.106-.841 1.946-2.102 2.52-3.782.716-2.046 1.074-4.509 1.074-7.389 0-2.893-.319-5.262-.957-7.105s-1.521-3.192-2.646-4.046-2.314-1.28-3.564-1.28c-1.276 0-2.474.427-3.594 1.28s-1.973 2.111-2.559 3.772-.879 4.122-.879 7.38zM140.294 252.115v18.848h-2.734v-21.25h10.742v2.402h-8.008zM326.795 248.893h-2.93c.534-2.37 1.556-4.192 3.066-5.469s3.294-1.914 5.352-1.914c1.497 0 2.894.342 4.189 1.025s2.298 1.604 3.008 2.764 1.064 2.37 1.064 3.633c0 2.474-1.23 4.434-3.691 5.879 1.38.56 2.513 1.38 3.398 2.461 1.25 1.523 1.875 3.229 1.875 5.117 0 1.628-.43 3.181-1.289 4.658s-2.031 2.62-3.516 3.428c-1.484.807-3.145 1.211-4.98 1.211-2.474 0-4.538-.713-6.191-2.139s-2.734-3.519-3.242-6.279h2.813c.495 1.862 1.204 3.21 2.129 4.043 1.185 1.055 2.695 1.582 4.531 1.582 2.083 0 3.757-.625 5.02-1.875s1.895-2.715 1.895-4.395c0-1.12-.315-2.168-.947-3.145s-1.478-1.712-2.539-2.207-2.705-.801-4.932-.918v-2.637c1.315 0 2.513-.231 3.594-.693s1.865-1.052 2.354-1.768.732-1.497.732-2.344c0-1.25-.498-2.331-1.494-3.242s-2.256-1.367-3.779-1.367c-1.237 0-2.305.349-3.203 1.045s-1.662 1.879-2.287 3.546zM363.338 242.232v2.734h-10.209l-1.438 7.834c1.249-.366 2.374-.549 3.376-.549 2.614 0 4.771.876 6.468 2.627s2.546 3.994 2.546 6.729c0 1.888-.437 3.62-1.309 5.195s-2.054 2.783-3.545 3.623-3.213 1.26-5.166 1.26c-2.331 0-4.297-.713-5.898-2.139s-2.559-3.271-2.871-5.537h2.949c.222 1.106.596 2.005 1.123 2.695s1.23 1.247 2.109 1.67 1.8.635 2.764.635c1.888 0 3.509-.715 4.863-2.146 1.354-1.43 2.031-3.218 2.031-5.364 0-1.937-.612-3.511-1.836-4.72s-2.858-1.813-4.902-1.813c-1.692 0-3.743.515-6.152 1.543l2.656-14.277h12.441zM367.107 256.607c0-3.789.407-6.719 1.221-8.789s1.963-3.64 3.447-4.707 3.145-1.602 4.98-1.602c1.862 0 3.548.537 5.059 1.611s2.705 2.686 3.584 4.834 1.318 5.032 1.318 8.652c0 3.606-.433 6.478-1.299 8.613s-2.061 3.747-3.584 4.834-3.216 1.631-5.078 1.631c-1.836 0-3.489-.527-4.961-1.582s-2.62-2.627-3.447-4.717-1.24-5.015-1.24-8.778zm2.715.049c0 3.245.29 5.697.869 7.359.579 1.661 1.436 2.922 2.568 3.782 1.133.859 2.331 1.29 3.594 1.29 1.276 0 2.468-.421 3.574-1.261 1.106-.841 1.946-2.102 2.52-3.782.716-2.046 1.074-4.509 1.074-7.389 0-2.893-.319-5.262-.957-7.105s-1.521-3.192-2.646-4.046-2.314-1.28-3.564-1.28c-1.276 0-2.474.427-3.594 1.28s-1.973 2.111-2.559 3.772-.879 4.122-.879 7.38zM404.861 252.115v18.848h-2.734v-21.25h10.742v2.402h-8.008z"/><ellipse fill="#CFD0D0" cx="234.33" cy="159.323" rx="4.252" ry="127.56"/><path fill="#FFF" d="M108.189 94.123H85.512l-31.181 31.18v14.174h85.039v-14.174zM62.835 218.848h68.029l8.506-76.535H54.331l8.504 76.535zm34.016-59.528c10.958 0 19.841 8.883 19.841 19.842 0 10.958-8.883 19.842-19.841 19.842s-19.843-8.884-19.843-19.842c0-10.959 8.885-19.842 19.843-19.842zM159.212 99.792l-19.842 39.685h2.834l19.843-39.685zM31.654 99.792l19.842 39.685h2.835L34.488 99.792zM381.024 62.942h-28.347l-38.976 38.976v17.717H420v-17.717zM324.331 218.848h85.036L420 123.178H313.701l10.63 95.67zm42.52-74.409c13.697 0 24.801 11.104 24.801 24.802 0 13.697-11.104 24.803-24.801 24.803s-24.804-11.105-24.804-24.803 11.106-24.802 24.804-24.802zM444.803 70.028L420 119.635h3.543l24.803-49.607zM285.355 70.028l24.802 49.607h3.544l-24.803-49.607z"/></svg>