<svg xmlns="http://www.w3.org/2000/svg" width="170.077" height="73.59" viewBox="0 0 170.077 73.59"><g fill="#FFF"><path d="M34.01 65.091h1.313l2.178 6.643 2.225-6.675h1.025l2.24 6.675 2.178-6.643h1.279l-2.912 8.34h-1.072L40.237 66.9l-2.24 6.531h-1.088l-2.899-8.34zm14.033-3.169h1.408v1.36h-1.408v-1.36zm.08 3.169h1.232v8.275h-1.232v-8.275zm3.742 0h1.232v1.44c.545-.896 1.408-1.616 2.834-1.616 2 0 3.168 1.345 3.168 3.313v5.138h-1.232v-4.834c0-1.536-.832-2.497-2.289-2.497-1.424 0-2.48 1.04-2.48 2.593v4.738h-1.232v-8.275zm13.278 7.395c1.135 0 1.936-.465 2.607-1.169l.77.688c-.832.928-1.842 1.553-3.41 1.553-2.273 0-4.129-1.745-4.129-4.322 0-2.4 1.68-4.321 3.969-4.321 2.449 0 3.857 1.952 3.857 4.386 0 .112 0 .24-.016.432h-6.563c.176 1.745 1.458 2.753 2.915 2.753zm2.416-3.746c-.145-1.505-1.008-2.785-2.641-2.785-1.426 0-2.514 1.185-2.689 2.785h5.33zm14.255 3.041c-1.023 1.104-2.209 1.745-3.664 1.745-2.018 0-3.521-1.265-3.521-3.169 0-1.489.992-2.562 2.705-3.233-.77-.896-1.121-1.585-1.121-2.497 0-1.473 1.184-2.657 2.961-2.657 1.568 0 2.721 1.137 2.721 2.561 0 1.425-1.008 2.337-2.641 2.913l2.561 2.609c.496-.72.945-1.568 1.346-2.497l1.039.48c-.496 1.057-1.008 2.017-1.615 2.817l1.952 2-.96.736-1.763-1.808zm-.767-.784l-2.994-3.089c-1.488.544-2.145 1.456-2.145 2.433 0 1.2.961 2.113 2.338 2.113 1.057 0 1.984-.56 2.801-1.457zm-.336-6.434c0-.896-.672-1.553-1.586-1.553-1.008 0-1.695.704-1.695 1.648 0 .657.271 1.153 1.119 2.065 1.426-.48 2.162-1.168 2.162-2.16zm9.325.528h1.313l2.178 6.643 2.225-6.675h1.023l2.242 6.675 2.176-6.643h1.281l-2.914 8.34h-1.072L96.263 66.9l-2.24 6.531h-1.09l-2.897-8.34zm13.318 5.843c0-1.777 1.441-2.705 3.539-2.705 1.055 0 1.791.144 2.527.352v-.256c0-1.473-.895-2.241-2.447-2.241-.977 0-1.746.24-2.514.593l-.369-1.009c.914-.416 1.793-.704 3.01-.704 1.168 0 2.082.32 2.674.912.576.576.863 1.377.863 2.434v5.058h-1.217v-1.232c-.576.736-1.52 1.408-2.977 1.408-1.551-.002-3.089-.882-3.089-2.61zm6.084-.609v-.769a8.521 8.521 0 0 0-2.418-.353c-1.537 0-2.416.673-2.416 1.697 0 1.04.959 1.648 2.08 1.648 1.522.002 2.754-.91 2.754-2.223zm3.999-4.145H112.3v-1.073h1.137v-.72c0-.944.256-1.665.721-2.129.416-.416 1.023-.641 1.775-.641.576 0 .961.064 1.361.208v1.073c-.449-.129-.785-.209-1.201-.209-.961 0-1.439.577-1.439 1.761v.673h2.625v1.057h-2.609v7.187h-1.232V66.18zm5.89 0h-1.137v-1.073h1.137v-.72c0-.944.24-1.665.703-2.129.432-.416 1.025-.641 1.777-.641.576 0 .977.064 1.359.208v1.073c-.432-.129-.768-.209-1.184-.209-.977 0-1.441.577-1.441 1.761v.673h2.609v1.057h-2.609v7.187h-1.215V66.18zm5.522-4.498h1.232v11.685h-1.232V61.682zm7.552 10.804c1.137 0 1.938-.465 2.609-1.169l.768.688c-.832.928-1.84 1.553-3.408 1.553-2.273 0-4.131-1.745-4.131-4.322 0-2.4 1.682-4.321 3.971-4.321 2.449 0 3.857 1.952 3.857 4.386 0 .112 0 .24-.016.432h-6.563c.177 1.745 1.456 2.753 2.913 2.753zm2.418-3.746c-.145-1.505-1.01-2.785-2.643-2.785-1.424 0-2.512 1.185-2.688 2.785h5.331zM25.998 0C11.663 0 0 11.665 0 26.001c0 14.337 11.66 25.998 25.998 25.998h.025l1.516 8.951h1.944l-1.529-9.024c13.425-1.003 24.042-12.246 24.042-25.925C51.996 11.665 40.334 0 25.998 0zm1.635 50.032l-3.821-22.594-.763-4.487 9.924-.003.003-1.913h-10.23a8.783 8.783 0 0 1-.044-.864c0-4.603 3.743-8.351 8.347-8.351a8.35 8.35 0 0 1 6.893 3.64l1.592-1.061c-1.852-2.711-4.964-4.492-8.484-4.492-4.355 0-8.092 2.734-9.575 6.574a10.193 10.193 0 0 0-.65 4.553c.055.658.286 1.913.286 1.913l4.591 27.134c-13.143-.159-23.79-10.896-23.79-24.08C1.914 12.72 12.719 1.913 25.998 1.913c13.281 0 24.084 10.807 24.084 24.088 0 12.729-9.928 23.185-22.449 24.031zM65.851 9.761c-4.261 0-7.925 2.597-9.497 6.293a10.273 10.273 0 0 0-.769 4.982c.002.044.007.085.011.126l.004.014.11.768.006.033.143.976 4.201 28.939 1.945-.001-3.591-24.682-.621-4.257 16.116-.003-.607 4.253-3.556 24.688 1.939.004 4.16-28.942s.074-.604.129-.911l.006-.03.141-.969v-.006a10.278 10.278 0 0 0-.758-4.945c-1.561-3.716-5.236-6.33-9.512-6.33zm8.37 11.04v.002c-.01.079-.016.156-.025.232H57.51c-.008-.042-.012-.086-.017-.129l-.004-.032a9.633 9.633 0 0 1-.038-.801c.002-4.632 3.769-8.399 8.399-8.399 4.633 0 8.401 3.768 8.399 8.399.001.244-.009.49-.028.728zm34.286-4.536c.167 1.079-.132 2.839-.132 2.839l-.007.012-5.9 32.775-1.947-.004 5.152-28.593.826-4.583.002-.012c.061-.24.168-1.157.168-1.371a5.666 5.666 0 0 0-5.664-5.663 5.67 5.67 0 0 0-5.662 5.663l.002 3.687-2.209.003s.006-3.885 0-3.979a5.67 5.67 0 0 0-5.656-5.373 5.668 5.668 0 0 0-5.664 5.663c0 .167.114 1.182.208 1.51l.002.02.812 4.457 5.217 28.575-1.957.001-5.938-32.598s-.352-1.842-.179-3.059c.515-3.665 3.69-6.485 7.498-6.485a7.588 7.588 0 0 1 6.766 4.166 7.582 7.582 0 0 1 6.762-4.166c3.818 0 6.942 2.845 7.5 6.515zm7.242-10.04c0 .677-.548 1.223-1.225 1.223A1.223 1.223 0 1 1 114.526 5c.675 0 1.223.549 1.223 1.225zm-2.18 4.485h1.911v41.171h-1.913l.002-41.171zm17.328 39.268h7.737v1.912h-10.083l5.541-27.056.993-4.854c.079-.287.14-.58.181-.884v-.003c.04-.29.061-.587.06-.891.001-3.663-2.983-6.648-6.649-6.648a6.66 6.66 0 0 0-6.647 6.651 6.773 6.773 0 0 0 .31 2.003c.312 1.457.654 3.054 1.012 4.693.732 3.35 1.525 6.885 2.225 9.791 1.423 5.896 1.201 10.407-.657 13.407-1.149 1.856-2.94 3.281-5.179 3.796v-1.986c1.537-.477 2.74-1.512 3.552-2.817 1.577-2.552 1.722-6.571.425-11.953-1.041-4.313-2.285-10.017-3.229-14.444l-.304-1.433a8.036 8.036 0 0 1-.065-1.06 8.435 8.435 0 0 1 .909-3.835c.018-.039.04-.077.06-.118a8.579 8.579 0 0 1 7.59-4.608 8.579 8.579 0 0 1 7.668 4.753 8.478 8.478 0 0 1 .896 3.809c0 .415-.028.822-.086 1.219l-.003.015-.198.975-.001.006-6.058 29.56zm12.785-39.268h1.913v41.181h-1.913V10.71zm2.182-4.487c0 .679-.55 1.225-1.228 1.225A1.224 1.224 0 1 1 144.64 5c.674 0 1.224.549 1.224 1.223zm23.413 9.867c-1.561-3.715-5.237-6.329-9.515-6.329-4.26 0-7.926 2.597-9.498 6.293a10.255 10.255 0 0 0-.768 4.982c.002.044.008.085.012.126l.002.014.112.768.005.033.108.694 4.257 29.221 1.928.003-3.595-24.686-.621-4.257 16.116-.003-.607 4.253-3.537 24.688h1.934l4.148-28.938h-.088c.084-.299.158-.604.217-.911l.005-.03.139-.969.002-.006c.028-.317.044-.639.044-.962a10.205 10.205 0 0 0-.8-3.984zm-1.145 4.711v.002l-.023.232H151.42c-.004-.042-.008-.086-.014-.129l-.001-.032a8.84 8.84 0 0 1-.039-.801c0-4.632 3.769-8.399 8.397-8.399 4.632 0 8.4 3.768 8.4 8.399 0 .244-.01.49-.031.728z"/></g></svg>