<svg xmlns="http://www.w3.org/2000/svg" width="320" height="320.017" viewBox="0 0 320 320.017"><path fill="#E41D0C" d="M159.998 0C71.631 0 0 71.638 0 160.007c0 88.371 71.631 160.01 159.998 160.01 88.373 0 160.002-71.639 160.002-160.01C320 71.638 248.371 0 159.998 0z"/><path fill="#FFF" d="M201.846 40.399l-4.227 11.726 3.115 1.167 4.494-11.626-3.382-1.267zm17.834 8.121l-6.096 10.886 2.881 1.646 6.354-10.723-3.139-1.809zm-101.758 82.017l6.558-.651-8.027-8.893-6.05.679 7.519 8.865zm.13 2.035l13.426 55.308 23.707-21.745-10.81-5.858 9.675-6.931-35.998-20.774zm69.962 51.343l-55.342 4.84 23.872-21.887 31.47 17.047zm.92-1.16l4.238-55.699-46.324 33.062 42.086 22.637zm3.751-58.888l5.868-10.031-6.075.376-6.357 10.153 6.564-.498zm-31.603-56.161c9.219 15.531-21.514 26.705-7.189 47.791-5.88-22.234 17.596-30.067 7.175-47.791h.014zM144.17 33.035c29.071 23.524-20.694 66.498 13.487 88.699-30.419-23.861 23.281-59.976-13.487-88.699m48.592 92.529l-37.408 26.847-35.488-20.47 49.405-4.324 31.925-88.626 5.458 2.042-33.46 86.239 1.238-.105 44.828-80.141 5.063 2.909-45.486 76.845 13.925-1.216zM247.815 207.328h4.228v7.251h-4.228v-7.251zm0 12.08h4.228v36.201h-4.228v-36.201zm-43.242 17.956c0 4.207 1.426 7.724 4.263 10.531 2.833 2.823 6.365 4.231 10.566 4.231.708 0 1.628-.126 2.748-.343 6.619-1.339 10.48-5.252 11.598-11.742l.136-2.946c.164-2.719-.647-5.404-2.476-8.042-2.991-4.29-7.132-6.438-12.438-6.438-4.601 0-8.319 1.771-11.177 5.308-2.132 2.678-3.22 5.821-3.22 9.441m30.109-8.309c-.398-1.201-.604-2.168-.604-2.883l-.194-.535v-6.229h4.145v36.201h-4.145v-5.565c0-1.611.262-3.126.798-4.563l-.398.873c-3.031 6.613-8.022 9.921-14.952 9.921-1.204 0-2.637-.152-4.296-.468-3.788-.718-6.986-2.38-9.586-4.995-2.596-2.611-4.289-5.843-5.098-9.695-.225-1.075-.335-2.296-.335-3.681 0-6.792 2.913-12.09 8.731-15.888 3.254-2.14 6.878-3.221 10.848-3.221 3.311 0 6.255.874 8.846 2.619 2.603 1.742 4.535 4.131 5.842 7.17l.398.939zm-73.688 26.553v-48.281h4.159v17.364c0 .945-.382 2.392-1.146 4.363l.672-2.076c.809-2.552 2.44-4.582 4.894-6.097 2.326-1.436 4.868-2.149 7.646-2.149 5.098 0 9.091 1.957 12.003 5.897 2.188 2.995 3.281 6.524 3.281 10.598v20.38h-4.353v-20.12c0-3.666-.966-6.609-2.884-8.845-2.051-2.417-4.876-3.621-8.445-3.621-1.086 0-2.041.11-2.884.331-5.866 1.567-8.784 5.702-8.784 12.401v19.854h-4.159zm-21.781-32.314v-3.886h5.688v-12.08h4.15v12.08h8.588v3.886h-8.588v32.314h-4.15v-32.314h-5.688zm-9.068-15.966h4.232v7.251h-4.232v-7.251zm0 12.08h4.232v36.201h-4.232v-36.201zm-30.77 17.225l20.789-18.306 2.738 2.996-14.543 12.897c2.82 1.109 5.43 2.839 7.846 5.158 4.375 4.202 6.773 9.034 7.171 14.484l.135 1.746h-4.289c0-4.918-2.031-9.339-6.095-13.28-3.445-3.298-7.496-5.169-12.141-5.563l-1.611-.132zm-4.627-29.305h4.298v48.281h-4.298v-48.281zm-13.876 0h4.226v7.251h-4.226v-7.251zm0 12.08h4.226v36.201h-4.226v-36.201zm-21.917 3.886v-3.886h5.685v-12.08h4.155v12.08h8.589v3.886h-8.589v32.314H64.64v-32.314h-5.685z"/></svg>