<?xml version="1.0" encoding="utf-8"?>
<!-- Generator: Adobe Illustrator 16.0.0, SVG Export Plug-In . SVG Version: 6.00 Build 0)  -->
<!DOCTYPE svg PUBLIC "-//W3C//DTD SVG 1.1//EN" "http://www.w3.org/Graphics/SVG/1.1/DTD/svg11.dtd">
<svg version="1.1" xmlns="http://www.w3.org/2000/svg" xmlns:xlink="http://www.w3.org/1999/xlink" x="0px" y="0px" width="320px"
	 height="320.017px" viewBox="0 0 320 320.017" enable-background="new 0 0 320 320.017" xml:space="preserve">
<g id="Layer_2">
</g>
<g id="XMLID_1_">
</g>
<g id="Layer_6" display="none">
</g>
<g id="Layer_7">
</g>
<g id="Layer_5" display="none">
</g>
<g id="prices">
</g>
<g id="Layer_3">
	<path fill="#E41D0C" d="M159.998,0C71.631,0,0,71.638,0,160.007c0,88.371,71.631,160.01,159.998,160.01
		c88.373,0,160.002-71.639,160.002-160.01C320,71.638,248.371,0,159.998,0z"/>
	<path fill="#FFFFFF" d="M201.846,40.399l-4.227,11.726l3.115,1.167l4.494-11.626L201.846,40.399z M219.68,48.52l-6.096,10.886
		l2.881,1.646l6.354-10.723L219.68,48.52z M117.922,130.537l6.558-0.651l-8.027-8.893l-6.05,0.679L117.922,130.537z
		 M118.052,132.572l13.426,55.308l23.707-21.745l-10.81-5.858l9.675-6.931L118.052,132.572z M188.014,183.915l-55.342,4.84
		l23.872-21.887L188.014,183.915z M188.934,182.755l4.238-55.699l-46.324,33.062L188.934,182.755z M192.685,123.867l5.868-10.031
		l-6.075,0.376l-6.357,10.153L192.685,123.867z M161.082,67.706c9.219,15.531-21.514,26.705-7.189,47.791
		c-5.88-22.234,17.596-30.067,7.175-47.791H161.082z M144.17,33.035c29.071,23.524-20.694,66.498,13.487,88.699
		C127.238,97.873,180.938,61.758,144.17,33.035 M192.762,125.564l-37.408,26.847l-35.488-20.47l49.405-4.324l31.925-88.626
		l5.458,2.042l-33.46,86.239l1.238-0.105l44.828-80.141l5.063,2.909l-45.486,76.845L192.762,125.564z"/>
	<path fill="#FFFFFF" d="M247.815,207.328h4.228v7.251h-4.228V207.328z M247.815,219.408h4.228v36.201h-4.228V219.408z
		 M204.573,237.364c0,4.207,1.426,7.724,4.263,10.531c2.833,2.823,6.365,4.231,10.566,4.231c0.708,0,1.628-0.126,2.748-0.343
		c6.619-1.339,10.48-5.252,11.598-11.742l0.136-2.946c0.164-2.719-0.647-5.404-2.476-8.042c-2.991-4.29-7.132-6.438-12.438-6.438
		c-4.601,0-8.319,1.771-11.177,5.308C205.661,230.601,204.573,233.744,204.573,237.364 M234.682,229.055
		c-0.398-1.201-0.604-2.168-0.604-2.883l-0.194-0.535v-6.229h4.145v36.201h-4.145v-5.565c0-1.611,0.262-3.126,0.798-4.563
		l-0.398,0.873c-3.031,6.613-8.022,9.921-14.952,9.921c-1.204,0-2.637-0.152-4.296-0.468c-3.788-0.718-6.986-2.38-9.586-4.995
		c-2.596-2.611-4.289-5.843-5.098-9.695c-0.225-1.075-0.335-2.296-0.335-3.681c0-6.792,2.913-12.09,8.731-15.888
		c3.254-2.14,6.878-3.221,10.848-3.221c3.311,0,6.255,0.874,8.846,2.619c2.603,1.742,4.535,4.131,5.842,7.17L234.682,229.055z
		 M160.994,255.608v-48.281h4.159v17.364c0,0.945-0.382,2.392-1.146,4.363l0.672-2.076c0.809-2.552,2.44-4.582,4.894-6.097
		c2.326-1.436,4.868-2.149,7.646-2.149c5.098,0,9.091,1.957,12.003,5.897c2.188,2.995,3.281,6.524,3.281,10.598v20.38h-4.353v-20.12
		c0-3.666-0.966-6.609-2.884-8.845c-2.051-2.417-4.876-3.621-8.445-3.621c-1.086,0-2.041,0.11-2.884,0.331
		c-5.866,1.567-8.784,5.702-8.784,12.401v19.854H160.994z M139.213,223.294v-3.886h5.688v-12.08h4.15v12.08h8.588v3.886h-8.588
		v32.314h-4.15v-32.314H139.213z M130.145,207.328h4.232v7.251h-4.232V207.328z M130.145,219.408h4.232v36.201h-4.232V219.408z
		 M99.375,236.633l20.789-18.306l2.738,2.996l-14.543,12.897c2.82,1.109,5.43,2.839,7.846,5.158
		c4.375,4.202,6.773,9.034,7.171,14.484l0.135,1.746h-4.289c0-4.918-2.031-9.339-6.095-13.28c-3.445-3.298-7.496-5.169-12.141-5.563
		L99.375,236.633z M94.748,207.328h4.298v48.281h-4.298V207.328z M80.872,207.328h4.226v7.251h-4.226V207.328z M80.872,219.408
		h4.226v36.201h-4.226V219.408z M58.955,223.294v-3.886h5.685v-12.08h4.155v12.08h8.589v3.886h-8.589v32.314H64.64v-32.314H58.955z"
		/>
</g>
<g id="Dimension_Layer">
</g>
</svg>
