<svg xmlns="http://www.w3.org/2000/svg" width="200" height="200" viewBox="60 60.008 200 200"><g fill="#FFF"><path d="M197.37 75.378l-3.408 9.455 2.512.941 3.624-9.375-2.728-1.021zm14.38 6.548l-4.915 8.777 2.322 1.327 5.123-8.646-2.53-1.458zm-82.049 66.132l5.288-.525-6.472-7.17-4.878.547 6.062 7.148zm.105 1.641l10.825 44.595 19.116-17.532-8.716-4.724 7.801-5.589-29.026-16.75zm56.411 41.399L141.594 195l19.249-17.647 25.374 13.745zm.742-.936l3.417-44.911-37.351 26.659 33.934 18.252zm3.025-47.482l4.73-8.088-4.897.303-5.126 8.187 5.293-.402zm-25.482-45.284c7.433 12.523-17.348 21.533-5.797 38.535-4.741-17.928 14.188-24.244 5.785-38.535h.012zM150.865 69.44c23.44 18.968-16.686 53.618 10.875 71.519-24.528-19.239 18.772-48.359-10.875-71.519m39.181 74.608l-30.163 21.647-28.615-16.506 39.836-3.486 25.741-71.46 4.401 1.646-26.979 69.536.998-.084 36.145-64.619 4.083 2.346-36.677 61.961 11.23-.981zM234.436 209.977h3.409v5.846h-3.409v-5.846zm0 9.74h3.409v29.189h-3.409v-29.189zm-34.868 14.477c0 3.392 1.15 6.229 3.438 8.491 2.285 2.275 5.133 3.411 8.521 3.411.57 0 1.312-.101 2.216-.275 5.337-1.081 8.448-4.235 9.351-9.469l.11-2.374c.132-2.194-.522-4.358-1.996-6.485-2.412-3.458-5.752-5.19-10.029-5.19-3.711 0-6.708 1.427-9.014 4.278-1.719 2.161-2.597 4.695-2.597 7.613m24.278-6.7c-.319-.968-.486-1.748-.486-2.324l-.156-.432v-5.021h3.342v29.188h-3.342v-4.486c0-1.298.211-2.52.643-3.679l-.319.703c-2.444 5.332-6.468 7.999-12.057 7.999-.971 0-2.126-.121-3.463-.376-3.055-.581-5.634-1.921-7.729-4.029-2.095-2.104-3.459-4.711-4.112-7.815-.181-.868-.27-1.852-.27-2.969 0-5.477 2.349-9.749 7.04-12.812 2.623-1.725 5.546-2.598 8.746-2.598 2.671 0 5.045.706 7.133 2.111 2.1 1.405 3.656 3.332 4.712 5.782l.318.758zm-59.415 21.41v-38.929h3.353v14.001c0 .761-.307 1.928-.924 3.518l.543-1.674c.652-2.058 1.967-3.694 3.945-4.916 1.875-1.159 3.926-1.732 6.165-1.732 4.11 0 7.331 1.578 9.679 4.754 1.765 2.414 2.645 5.26 2.645 8.545v16.434h-3.511v-16.224c0-2.956-.779-5.329-2.325-7.131-1.654-1.95-3.931-2.92-6.81-2.92-.876 0-1.646.088-2.325.267-4.73 1.263-7.083 4.598-7.083 9.998v16.008l-3.352.001zm-17.563-26.055v-3.132h4.586v-9.74h3.346v9.74h6.925v3.132H154.8v26.056h-3.346v-26.056h-4.586zm-7.311-12.872h3.412v5.846h-3.412v-5.846zm0 9.74h3.412v29.189h-3.412v-29.189zm-24.81 13.887l16.762-14.761 2.208 2.416-11.726 10.398c2.274.894 4.378 2.29 6.327 4.158 3.527 3.39 5.461 7.285 5.782 11.679l.109 1.407h-3.458c0-3.965-1.638-7.528-4.915-10.706-2.778-2.66-6.044-4.169-9.79-4.486l-1.299-.105zm-3.731-23.627h3.465v38.93h-3.465v-38.93zm-11.189 0h3.408v5.846h-3.408v-5.846zm0 9.74h3.408v29.189h-3.408v-29.189zm-17.672 3.132v-3.132h4.584v-9.74h3.35v9.74h6.925v3.132h-6.925v26.056h-3.35v-26.056h-4.584z"/></g></svg>